<svg xmlns="http://www.w3.org/2000/svg" data-name="Layer 1" viewBox="0 0 128 128" x="0px" y="0px"><title>1</title><path d="M124.64437,30.18966H102.25906V7.53845a2.11074,2.11074,0,0,0-2.11252-2.11252h-84.409A14.51009,14.51009,0,0,0,1.24311,19.92032v88.15934a14.5101,14.5101,0,0,0,14.4944,14.49442H124.64437a2.11235,2.11235,0,0,0,2.11252-2.11252V32.30218A2.11394,2.11394,0,0,0,124.64437,30.18966ZM15.73751,9.651H98.034V30.18966H15.73751a10.26934,10.26934,0,1,1,0-20.53868ZM122.53184,87.29H105.89758a10.90809,10.90809,0,0,1,0-21.81617h16.63426Zm0-26.04122H105.89758a15.13313,15.13313,0,0,0,0,30.26627h16.63426v26.834H15.73751A10.28222,10.28222,0,0,1,5.46816,108.07965V30.14a14.44991,14.44991,0,0,0,10.26936,4.27474H122.53184Z"/><circle cx="105.89447" cy="76.38238" r="4.47928"/><path d="M49.06634,100.87962A24.49742,24.49742,0,1,0,24.56892,76.3822,24.52523,24.52523,0,0,0,49.06634,100.87962Zm0-44.76979A20.27237,20.27237,0,1,1,28.794,76.3822,20.29538,20.29538,0,0,1,49.06634,56.10983Z"/><path d="M49.06634,91.316h0a2.11252,2.11252,0,0,0,2.11252-2.11252V78.49472H61.88748A2.11252,2.11252,0,0,0,64,76.3822h0a2.11252,2.11252,0,0,0-2.11252-2.11252H51.17886V63.56118a2.11252,2.11252,0,0,0-2.11252-2.11252h0a2.11252,2.11252,0,0,0-2.11252,2.11252V74.26967H36.2452a2.11252,2.11252,0,0,0-2.11252,2.11252h0a2.11252,2.11252,0,0,0,2.11252,2.11252H46.95382V89.20346A2.11252,2.11252,0,0,0,49.06634,91.316Z"/></svg>