<?xml version="1.0" encoding="utf-8"?>
<svg width="800px" height="800px" viewBox="0 0 24 24" xmlns="http://www.w3.org/2000/svg">
<path d="M 485.952 219.206 C 485.952 309.503 387.472 382.704 265.99 382.704 C 231.496 382.704 198.857 376.802 169.799 366.283 C 129.409 399.528 43.827 448.824 28.821 443.232 C 36.136 445.451 92.393 358.523 100.398 326.828 C 66.544 298.072 46.028 260.42 46.028 219.206 C 46.028 128.909 144.508 55.708 265.99 55.708 C 387.472 55.708 485.952 128.909 485.952 219.206 Z M 28.701 443.186 C 28.74 443.202 28.78 443.217 28.821 443.232 C 28.779 443.22 28.739 443.204 28.701 443.186 Z"/>
</svg>