<?xml version="1.0" encoding="UTF-8" standalone="no"?>
<!DOCTYPE svg PUBLIC "-//W3C//DTD SVG 1.1//EN" "http://www.w3.org/Graphics/SVG/1.1/DTD/svg11.dtd">
<svg width="100%" height="100%" viewBox="0 0 17 18" version="1.1" xmlns="http://www.w3.org/2000/svg" xmlns:xlink="http://www.w3.org/1999/xlink" xml:space="preserve" xmlns:serif="http://www.serif.com/" style="fill-rule:evenodd;clip-rule:evenodd;stroke-linejoin:round;stroke-miterlimit:2;">
    <path d="M16.719,11.088C16.895,11.193 16.965,11.404 16.93,11.58C16.508,12.845 15.876,13.97 14.997,14.92C14.856,15.06 14.645,15.095 14.469,14.99L12.958,14.146C12.325,14.674 11.622,15.095 10.848,15.377L10.848,17.099C10.848,17.275 10.708,17.451 10.497,17.521C9.266,17.767 7.965,17.802 6.665,17.521C6.489,17.451 6.348,17.275 6.348,17.099L6.348,15.377C5.54,15.095 4.837,14.674 4.204,14.146L2.692,14.99C2.516,15.095 2.305,15.06 2.165,14.92C1.321,13.97 0.653,12.845 0.266,11.58C0.196,11.404 0.266,11.193 0.442,11.088L1.954,10.244C1.813,9.4 1.813,8.592 1.954,7.748L0.442,6.904C0.266,6.799 0.196,6.588 0.266,6.412C0.653,5.146 1.321,4.021 2.165,3.072C2.305,2.931 2.516,2.896 2.692,3.002L4.204,3.881C4.837,3.318 5.54,2.896 6.348,2.615L6.348,0.892C6.348,0.717 6.454,0.541 6.665,0.506C7.895,0.224 9.196,0.189 10.497,0.506C10.708,0.541 10.848,0.717 10.848,0.892L10.848,2.615C11.622,2.896 12.325,3.318 12.958,3.845L14.469,3.002C14.645,2.896 14.856,2.931 14.997,3.072C15.84,4.021 16.508,5.146 16.895,6.412C16.965,6.588 16.895,6.799 16.719,6.904L15.208,7.748C15.383,8.592 15.383,9.4 15.208,10.244L16.719,11.088ZM8.598,11.791C10.145,11.791 11.411,10.56 11.411,8.978C11.411,7.431 10.145,6.166 8.598,6.166C7.016,6.166 5.786,7.431 5.786,8.978C5.786,10.56 7.016,11.791 8.598,11.791Z"/>
</svg>
