<?xml version="1.0" encoding="UTF-8" standalone="no"?>
<!DOCTYPE svg PUBLIC "-//W3C//DTD SVG 1.1//EN" "http://www.w3.org/Graphics/SVG/1.1/DTD/svg11.dtd">
<svg width="100%" height="100%" viewBox="0 0 800 800" version="1.1" xmlns="http://www.w3.org/2000/svg" xmlns:xlink="http://www.w3.org/1999/xlink" xml:space="preserve" xmlns:serif="http://www.serif.com/" style="fill-rule:evenodd;clip-rule:evenodd;stroke-linejoin:round;stroke-miterlimit:2;">
    <g transform="matrix(16,0,0,16,-38702.1,-34216.1)">
        <path d="M2426.69,2138.51L2454.82,2138.51C2458.26,2138.51 2461.07,2141.31 2461.07,2144.76L2461.07,2182.26C2461.07,2185.7 2458.26,2188.51 2454.82,2188.51L2426.69,2188.51C2423.24,2188.51 2420.44,2185.7 2420.44,2182.26L2420.44,2144.76C2420.44,2141.31 2423.24,2138.51 2426.69,2138.51ZM2434.5,2157.26C2434.5,2159.49 2435.7,2161.55 2437.63,2162.67C2439.56,2163.78 2441.95,2163.78 2443.88,2162.67C2445.81,2161.55 2447,2159.49 2447,2157.26C2447,2155.02 2445.81,2152.96 2443.88,2151.84C2441.95,2150.73 2439.56,2150.73 2437.63,2151.84C2435.7,2152.96 2434.5,2155.02 2434.5,2157.26ZM2437.63,2166.63C2433.31,2166.63 2429.82,2170.13 2429.82,2174.44C2429.82,2175.3 2430.52,2176.01 2431.38,2176.01L2450.13,2176.01C2450.99,2176.01 2451.69,2175.3 2451.69,2174.44C2451.69,2170.13 2448.2,2166.63 2443.88,2166.63L2437.63,2166.63ZM2467.32,2146.32L2467.32,2152.57C2467.32,2153.43 2466.61,2154.13 2465.75,2154.13C2464.89,2154.13 2464.19,2153.43 2464.19,2152.57L2464.19,2146.32C2464.19,2145.46 2464.89,2144.76 2465.75,2144.76C2466.61,2144.76 2467.32,2145.46 2467.32,2146.32ZM2465.75,2157.26C2466.61,2157.26 2467.32,2157.96 2467.32,2158.82L2467.32,2165.07C2467.32,2165.93 2466.61,2166.63 2465.75,2166.63C2464.89,2166.63 2464.19,2165.93 2464.19,2165.07L2464.19,2158.82C2464.19,2157.96 2464.89,2157.26 2465.75,2157.26ZM2467.32,2171.32L2467.32,2177.57C2467.32,2178.43 2466.61,2179.13 2465.75,2179.13C2464.89,2179.13 2464.19,2178.43 2464.19,2177.57L2464.19,2171.32C2464.19,2170.46 2464.89,2169.76 2465.75,2169.76C2466.61,2169.76 2467.32,2170.46 2467.32,2171.32Z"/>
    </g>
</svg>
