<?xml version="1.0" encoding="utf-8"?>
<svg width="800px" height="800px" viewBox="0 0 24 24" xmlns="http://www.w3.org/2000/svg">
<path d="M 8.519 478.559 C 9.706 374.681 84.66 253.033 218.445 252.205 C 345.797 251.232 401.867 361.857 405.418 476.503 L 8.519 478.559 Z M 306.49 158.218 C 306.971 208.852 268.335 244.768 221.603 245.114 C 168.3 245.508 110.718 209.71 110.718 151.504 C 110.718 93.297 166.239 50.267 212.989 50.822 C 266.237 51.455 306.568 110.371 306.49 158.218 Z M 364.323 153.275 L 479.38 153.214 L 479.386 164.214 L 364.329 164.275 L 364.323 153.275 Z M 481.582 229.879 L 367.499 229.543 L 367.531 218.543 L 481.614 218.879 L 481.582 229.879 Z M 366.138 296.715 L 482.243 296.612 L 482.253 307.612 L 366.148 307.715 L 366.138 296.715 Z"/>
</svg>