<?xml version="1.0" encoding="utf-8"?>
<svg width="800px" height="800px" viewBox="0 0 24 24" xmlns="http://www.w3.org/2000/svg">
<path d="M 462.932 247.921 C 462.28 317.262 383.634 461.241 260.208 451.248 C 118.81 439.799 71.095 346.598 72.526 241.826 C 74.423 102.936 192.292 42.705 260.208 44.594 C 411.229 48.794 463.584 178.58 462.932 247.921 Z M 336.948 226.044 L 382.363 110.526 L 274.785 176.882 Z M 269.576 196.661 C 245.557 196.661 226.085 217.9 226.085 244.099 C 226.085 270.298 245.557 291.537 269.576 291.537 C 293.595 291.537 313.067 270.298 313.067 244.099 C 313.067 217.9 293.595 196.661 269.576 196.661 Z M 203.842 263.902 L 161.467 390.659 L 271.348 306.072 Z"/>
</svg>