<svg xmlns="http://www.w3.org/2000/svg" xmlns:xlink="http://www.w3.org/1999/xlink" fill="#000000" version="1.1" id="Layer_1" xml:space="preserve" viewBox="0 85.33 512 342">
<g>
	<g>
		<g>
			<path d="M458.667,85.333H245.333c-5.888,0-10.667,4.779-10.667,10.667s4.779,10.667,10.667,10.667h213.333     c17.643,0,32,14.357,32,32v128c0,17.643-14.357,32-32,32h-21.333c-3.435,0-6.656,1.664-8.661,4.437     c-1.984,2.795-2.539,6.379-1.451,9.621l10.539,31.595l-58.027-43.52c-1.856-1.387-4.096-2.133-6.4-2.133H352     c-5.888,0-10.667,4.779-10.667,10.667S346.112,320,352,320h17.771l82.496,61.867c1.899,1.429,4.16,2.133,6.4,2.133     c2.197,0,4.373-0.661,6.229-2.005c3.797-2.731,5.355-7.595,3.883-12.032L452.139,320h6.528C488.064,320,512,296.064,512,266.667     v-128C512,109.269,488.064,85.333,458.667,85.333z"/>
			<path d="M266.667,128H53.333C23.936,128,0,151.936,0,181.333v128c0,29.397,23.936,53.333,53.333,53.333h6.528l-16.64,49.963     c-1.472,4.437,0.107,9.301,3.883,12.032c1.856,1.344,4.032,2.005,6.229,2.005c2.24,0,4.501-0.704,6.4-2.133l82.496-61.867     h124.437c29.397,0,53.333-23.936,53.333-53.333v-128C320,151.936,296.064,128,266.667,128z M298.667,309.333     c0,17.643-14.357,32-32,32h-128c-2.325,0-4.565,0.747-6.4,2.133l-58.027,43.52l10.539-31.595     c1.109-3.264,0.555-6.848-1.451-9.621c-2.005-2.795-5.227-4.437-8.661-4.437H53.333c-17.643,0-32-14.357-32-32v-128     c0-17.643,14.357-32,32-32h213.333c17.643,0,32,14.357,32,32V309.333z"/>
		</g>
	</g>
</g>
</svg>