<?xml version="1.0" encoding="UTF-8" standalone="no"?>
<!DOCTYPE svg PUBLIC "-//W3C//DTD SVG 1.1//EN" "http://www.w3.org/Graphics/SVG/1.1/DTD/svg11.dtd">
<svg width="100%" height="100%" viewBox="0 0 21 21" version="1.1" xmlns="http://www.w3.org/2000/svg" xmlns:xlink="http://www.w3.org/1999/xlink" xml:space="preserve" xmlns:serif="http://www.serif.com/" style="fill-rule:evenodd;clip-rule:evenodd;stroke-linejoin:round;stroke-miterlimit:2;">
    <g transform="matrix(1.00548,0,0,0.958517,-9.32587e-14,1.10742)">
        <path d="M0,9.799C0,5.885 1.99,2.269 5.221,0.312C8.452,-1.645 12.433,-1.645 15.664,0.312C18.895,2.269 20.886,5.885 20.886,9.799C20.886,13.713 18.895,17.329 15.664,19.286C12.433,21.243 8.452,21.243 5.221,19.286C1.99,17.329 0,13.713 0,9.799ZM18.928,9.799C18.928,6.619 17.31,3.681 14.685,2.091C12.06,0.501 8.826,0.501 6.2,2.091C3.575,3.681 1.958,6.619 1.958,9.799C1.958,12.979 3.575,15.917 6.2,17.507C8.826,19.097 12.06,19.097 14.685,17.507C17.31,15.917 18.928,12.979 18.928,9.799ZM7.245,12.456C7.865,13.158 8.925,13.907 10.443,13.907C11.96,13.907 13.021,13.158 13.641,12.456C14.008,12.041 14.628,12.011 15.024,12.396C15.419,12.782 15.448,13.432 15.081,13.847C14.183,14.865 12.633,15.961 10.447,15.961C8.26,15.961 6.706,14.87 5.813,13.847C5.446,13.432 5.47,12.782 5.87,12.396C6.27,12.011 6.886,12.037 7.253,12.456L7.245,12.456ZM13.722,6.376C14.443,6.376 15.028,6.989 15.028,7.745C15.028,8.501 14.443,9.114 13.722,9.114C13.002,9.114 12.417,8.501 12.417,7.745C12.417,6.989 13.002,6.376 13.722,6.376ZM5.89,7.745C5.89,6.989 6.475,6.376 7.196,6.376C7.917,6.376 8.501,6.989 8.501,7.745C8.501,8.501 7.917,9.114 7.196,9.114C6.475,9.114 5.89,8.501 5.89,7.745Z"/>
    </g>
</svg>
