<svg xmlns="http://www.w3.org/2000/svg" width="24" height="24" viewBox="0 0 24 24" fill="none">
  <path fill="#000000" fill-rule="evenodd" clip-rule="evenodd" d="M6.75 2.5C5.231 2.5 4 3.731 4 5.25v13.5c0 1.519 1.231 2.75 2.75 2.75h10.5c1.519 0 2.75-1.231 2.75-2.75V8.604c0-.199-.079-.39-.22-.53L14.426 2.72c-.14-.141-.331-.22-.53-.22H6.75ZM5.5 5.25c0-.69.56-1.25 1.25-1.25H13v4.25c0 1.243 1.007 2.25 2.25 2.25h3.25v8.25c0 .69-.56 1.25-1.25 1.25H6.75c-.69 0-1.25-.56-1.25-1.25V5.25ZM14.5 5.061V8.25c0 .414.336.75.75.75h3.189L14.5 5.061Z"/>
  <path fill="#000000" d="M8 13.25c0-.414.336-.75.75-.75h6.5c.414 0 .75.336.75.75s-.336.75-.75.75h-6.5a.75.75 0 0 1-.75-.75ZM8 16.75c0-.414.336-.75.75-.75h4.75c.414 0 .75.336.75.75s-.336.75-.75.75H8.75a.75.75 0 0 1-.75-.75Z"/>
</svg>
