<?xml version="1.0" encoding="iso-8859-1"?>
<!-- Uploaded to: SVG Repo, www.svgrepo.com, Generator: SVG Repo Mixer Tools -->
<svg fill="#000000" height="800px" width="800px" version="1.1" id="Layer_1" xmlns="http://www.w3.org/2000/svg" xmlns:xlink="http://www.w3.org/1999/xlink" 
	 viewBox="0 0 512 512" xml:space="preserve">
<g>
	<g>
		<path d="M256,0C114.84,0,0,114.842,0,256s114.84,256,256,256s256-114.842,256-256S397.16,0,256,0z M49.548,256
			c0-113.837,92.614-206.452,206.452-206.452c48.011,0,92.246,16.473,127.351,44.065L93.613,383.351
			C66.022,348.246,49.548,304.011,49.548,256z M256,462.452c-48.011,0-92.246-16.473-127.351-44.065l289.738-289.738
			c27.592,35.105,44.065,79.34,44.065,127.351C462.452,369.837,369.837,462.452,256,462.452z"/>
	</g>
</g>
</svg>