<?xml version="1.0" encoding="iso-8859-1"?>
<svg fill="#000000" version="1.1" id="Capa_1" xmlns="http://www.w3.org/2000/svg" xmlns:xlink="http://www.w3.org/1999/xlink" 
     width="800px" height="800px" viewBox="0 0 606.877 606.877" xml:space="preserve">
<g>
    <g>
        <g>
          <path d="M58.64,444.154h162.654c32.058,0,58.14-26.082,58.14-58.14V223.36c0-32.059-26.082-58.14-58.14-58.14H58.64
              C26.582,165.22,0.5,191.301,0.5,223.36v162.654C0.5,418.072,26.582,444.154,58.64,444.154z M43.34,223.36c0-8.45,6.85-15.3,15.3-15.3
              h162.654c8.45,0,15.3,6.85,15.3,15.3v162.654c0,8.45-6.85,15.3-15.3,15.3H58.64c-8.45,0-15.3-6.85-15.3-15.3V223.36z"/>
          <path d="M221.294,444.654H58.64c-32.334,0-58.64-26.306-58.64-58.64V223.36C0,191.025,26.306,164.72,58.64,164.72h162.654
              c32.334,0,58.64,26.306,58.64,58.64v162.654C279.934,418.348,253.628,444.654,221.294,444.654z M58.64,165.72
              C26.857,165.72,1,191.577,1,223.36v162.654c0,31.783,25.857,57.64,57.64,57.64h162.654c31.783,0,57.64-25.857,57.64-57.64V223.36
              c0-31.783-25.857-57.64-57.64-57.64H58.64z M221.294,401.813H58.64c-8.712,0-15.8-7.088-15.8-15.8V223.36
              c0-8.712,7.088-15.8,15.8-15.8h162.654c8.712,0,15.8,7.088,15.8,15.8v162.654C237.094,394.726,230.006,401.813,221.294,401.813z
              M58.64,208.56c-8.161,0-14.8,6.639-14.8,14.8v162.654c0,8.161,6.639,14.8,14.8,14.8h162.654c8.161,0,14.8-6.639,14.8-14.8V223.36
              c0-8.161-6.639-14.8-14.8-14.8H58.64z"/>
        </g>

        <g>
            <path d="M548.238,1.22H385.584c-32.059,0-58.141,26.082-58.141,58.14v162.654c0,32.058,26.082,58.14,58.141,58.14h162.654
                c32.059,0,58.139-26.082,58.139-58.14V59.36C606.377,27.301,580.297,1.22,548.238,1.22z M563.537,222.014
                c0,8.45-6.85,15.3-15.299,15.3H385.584c-8.449,0-15.301-6.85-15.301-15.3V59.36c0-8.45,6.852-15.3,15.301-15.3h162.654
                c8.449,0,15.299,6.85,15.299,15.3V222.014z"/>
            <path d="M548.238,280.654H385.584c-32.335,0-58.641-26.306-58.641-58.64V59.36c0-32.334,26.306-58.64,58.641-58.64h162.654
                c32.333,0,58.639,26.306,58.639,58.64v162.654C606.877,254.348,580.571,280.654,548.238,280.654z M385.584,1.72
                c-31.783,0-57.641,25.857-57.641,57.64v162.654c0,31.783,25.857,57.64,57.641,57.64h162.654c31.782,0,57.639-25.857,57.639-57.64
                V59.36c0-31.783-25.856-57.64-57.639-57.64H385.584z M548.238,237.813H385.584c-8.713,0-15.801-7.088-15.801-15.8V59.36
                c0-8.712,7.088-15.8,15.801-15.8h162.654c8.712,0,15.799,7.088,15.799,15.8v162.654
                C564.037,230.726,556.95,237.813,548.238,237.813z M385.584,44.56c-8.161,0-14.801,6.639-14.801,14.8v162.654
                c0,8.161,6.64,14.8,14.801,14.8h162.654c8.16,0,14.799-6.639,14.799-14.8V59.36c0-8.161-6.639-14.8-14.799-14.8H385.584z"/>
        </g>

        <g>
            <path d="M548.238,326.724H385.584c-32.059,0-58.141,26.082-58.141,58.141v162.654c0,32.059,26.082,58.139,58.141,58.139h162.654
                c32.059,0,58.139-26.08,58.139-58.139V384.864C606.377,352.806,580.297,326.724,548.238,326.724z M563.537,547.519
                c0,8.449-6.85,15.299-15.299,15.299H385.584c-8.449,0-15.301-6.85-15.301-15.299V384.864c0-8.449,6.852-15.301,15.301-15.301
                h162.654c8.449,0,15.299,6.852,15.299,15.301V547.519z"/>
            <path d="M548.238,606.157H385.584c-32.335,0-58.641-26.306-58.641-58.639V384.864c0-32.335,26.306-58.641,58.641-58.641h162.654
                c32.333,0,58.639,26.306,58.639,58.641v162.654C606.877,579.852,580.571,606.157,548.238,606.157z M385.584,327.224
                c-31.783,0-57.641,25.857-57.641,57.641v162.654c0,31.782,25.857,57.639,57.641,57.639h162.654
                c31.782,0,57.639-25.856,57.639-57.639V384.864c0-31.783-25.856-57.641-57.639-57.641H385.584z M548.238,563.317H385.584
                c-8.713,0-15.801-7.087-15.801-15.799V384.864c0-8.713,7.088-15.801,15.801-15.801h162.654c8.712,0,15.799,7.088,15.799,15.801
                v162.654C564.037,556.23,556.95,563.317,548.238,563.317z M385.584,370.063c-8.161,0-14.801,6.64-14.801,14.801v162.654
                c0,8.16,6.64,14.799,14.801,14.799h162.654c8.16,0,14.799-6.639,14.799-14.799V384.864c0-8.161-6.639-14.801-14.799-14.801
                H385.584z"/>
        </g>
    </g>
</g>
</svg>
