<?xml version="1.0" encoding="UTF-8" standalone="no"?>
<!DOCTYPE svg PUBLIC "-//W3C//DTD SVG 1.1//EN" "http://www.w3.org/Graphics/SVG/1.1/DTD/svg11.dtd">
<svg width="100%" height="100%" viewBox="0 0 23 18" version="1.1" xmlns="http://www.w3.org/2000/svg" xmlns:xlink="http://www.w3.org/1999/xlink" xml:space="preserve" xmlns:serif="http://www.serif.com/" style="fill-rule:evenodd;clip-rule:evenodd;stroke-linejoin:round;stroke-miterlimit:2;">
    <path d="M11.523,4.882C11.599,4.806 11.714,4.767 11.828,4.767C11.904,4.767 12.019,4.806 12.095,4.882L19.145,10.637L19.145,16.887C19.145,17.23 18.84,17.497 18.536,17.497L14.229,17.497C13.924,17.497 13.619,17.23 13.619,16.887L13.619,13.228C13.619,12.923 13.352,12.618 13.009,12.618L10.57,12.618C10.266,12.618 9.961,12.923 9.961,13.228L9.961,16.887C9.961,17.23 9.694,17.497 9.389,17.497L5.121,17.497C4.778,17.497 4.511,17.23 4.511,16.887L4.511,10.675L11.523,4.882ZM22.613,8.807C22.728,8.883 22.804,9.036 22.804,9.15C22.804,9.265 22.766,9.379 22.69,9.455L21.699,10.637C21.623,10.751 21.508,10.789 21.356,10.789C21.241,10.789 21.127,10.751 21.051,10.675L12.095,3.319C12.019,3.243 11.904,3.205 11.828,3.205C11.714,3.205 11.599,3.243 11.523,3.319L2.567,10.675C2.491,10.751 2.377,10.789 2.262,10.789C2.11,10.789 1.995,10.751 1.919,10.637L0.928,9.455C0.89,9.379 0.814,9.265 0.814,9.15C0.814,9.036 0.89,8.883 1.005,8.807L10.647,0.842C10.952,0.613 11.371,0.461 11.828,0.461C12.247,0.461 12.666,0.613 12.971,0.842L16.401,3.662L16.401,0.918C16.401,0.651 16.592,0.461 16.859,0.461L18.993,0.461C19.222,0.461 19.45,0.651 19.45,0.918L19.45,6.178L22.613,8.807Z" style="fill-opacity:0.5;"/>
</svg>
