<?xml version="1.0" encoding="utf-8"?>
<svg width="800px" height="800px" viewBox="0 0 24 24" fill="none" xmlns="http://www.w3.org/2000/svg">
<path fill-rule="evenodd" clip-rule="evenodd" d="M10.2929 9.7071C10.2929 9.1548 9.8452 8.7071 9.2929 8.7071C8.7406 8.7071 8.2929 9.1548 8.2929 9.7071V14.7071C8.2929 15.2594 8.7406 15.7071 9.2929 15.7071H14.2929C14.8452 15.7071 15.2929 15.2594 15.2929 14.7071C15.2929 14.1548 14.8452 13.7071 14.2929 13.7071H11.7071L19 6.4142C19.3905 6.0237 19.3905 5.3905 19 5C18.6095 4.6095 17.9763 4.6095 17.5858 5L10.2929 12.2929V9.7071ZM5 7C4.44772 7 4 7.44772 4 8V19C4 19.5523 4.44772 20 5 20H16C16.5523 20 17 19.5523 17 19V12.4375C17 11.8852 17.4477 11.4375 18 11.4375C18.5523 11.4375 19 11.8852 19 12.4375V19C19 20.6569 17.6569 22 16 22H5C3.34315 22 2 20.6569 2 19V8C2 6.34315 3.34315 5 5 5H11.5625C12.1148 5 12.5625 5.44772 12.5625 6C12.5625 6.55228 12.1148 7 11.5625 7H5Z" fill="#000000"/>
</svg>
