<?xml version="1.0" encoding="iso-8859-1"?>
<!-- Uploaded to: SVG Repo, www.svgrepo.com, Generator: SVG Repo Mixer Tools -->
<svg fill="#000000" height="800px" width="800px" version="1.1" id="Layer_1" xmlns="http://www.w3.org/2000/svg" xmlns:xlink="http://www.w3.org/1999/xlink" 
	 viewBox="0 0 512 512" xml:space="preserve">
<g>
	<g>
		<path d="M501.801,139.942H171.312c-5.633,0-10.199,4.566-10.199,10.199v19.235h-97.21c-5.633,0-10.199,4.566-10.199,10.199
			c0,5.633,4.566,10.199,10.199,10.199h97.21v132.452h-58.101c-5.633,0-10.199,4.566-10.199,10.199s4.566,10.199,10.199,10.199
			h58.101v19.235c0,5.633,4.566,10.199,10.199,10.199h330.489c5.633,0,10.199-4.566,10.199-10.199V150.141
			C512,144.508,507.434,139.942,501.801,139.942z M476.641,160.34l-140.07,114.985L197.14,160.34H476.641z M491.602,351.661h-310.09
			v-177.77l148.556,122.51c1.884,1.553,4.186,2.331,6.489,2.331c2.295,0,4.591-0.772,6.471-2.316L491.602,174.45V351.661z"/>
	</g>
</g>
<g>
	<g>
		<path d="M119.673,244.768H10.199C4.566,244.768,0,249.334,0,254.967c0,5.633,4.566,10.199,10.199,10.199h109.474
			c5.633,0,10.199-4.566,10.199-10.199C129.873,249.334,125.306,244.768,119.673,244.768z"/>
	</g>
</g>
<g>
	<g>
		<path d="M69.355,322.227h-5.451c-5.633,0-10.199,4.566-10.199,10.199c0,5.633,4.566,10.199,10.199,10.199h5.451
			c5.633,0,10.199-4.566,10.199-10.199C79.554,326.793,74.988,322.227,69.355,322.227z"/>
	</g>
</g>
</svg>