<?xml version="1.0" standalone="no"?><!DOCTYPE svg PUBLIC "-//W3C//DTD SVG 1.1//EN" "http://www.w3.org/Graphics/SVG/1.1/DTD/svg11.dtd"><svg t="1740572739339" class="icon" viewBox="0 0 1024 1024" version="1.1" xmlns="http://www.w3.org/2000/svg" p-id="1300" xmlns:xlink="http://www.w3.org/1999/xlink" width="200" height="200"><path d="M858.624 624.64v-50.176c0-50.176-34.816-99.328-99.328-99.328h-214.528V399.36c75.264-12.8 132.608-75.264 132.608-156.672 0-87.552-69.12-156.672-156.672-156.672-88.064 0-163.328 69.12-163.328 156.672 0 81.408 51.2 144.384 126.464 156.672v76.288H270.336c-52.736 0-99.328 49.152-99.328 99.328v50.176c-75.264 12.288-126.464 75.264-126.464 156.672 0 88.064 69.12 156.672 156.672 156.672 88.064 0 156.672-69.12 156.672-156.672 0-81.408-51.2-144.384-126.464-156.672v-45.056c0-25.088 13.824-44.032 38.912-44.032h488.96c25.088 0 38.912 18.944 38.912 44.032v45.056c-75.264 12.288-132.608 75.264-132.608 156.672 0 88.064 69.12 156.672 156.672 156.672 88.064 0 156.672-69.12 156.672-156.672 6.144-75.264-45.056-138.24-120.32-157.184zM422.912 242.688c0-51.2 39.936-97.28 97.28-97.28s97.28 45.568 97.28 97.28-39.936 102.912-97.28 102.912-97.28-46.08-97.28-102.912z m-122.88 539.136c0 56.832-45.568 96.256-96.256 96.256S107.52 833.024 107.52 781.824s45.568-96.256 96.256-96.256 96.256 39.936 96.256 96.256z m523.776 95.232c-55.808 0-94.72-44.544-94.72-94.72s44.544-94.72 94.72-94.72 94.72 44.544 94.72 94.72-38.912 94.72-94.72 94.72z" fill="#333333" p-id="1301"></path></svg>