<?xml version="1.0" encoding="utf-8"?><!-- Uploaded to: SVG Repo, www.svgrepo.com, Generator: SVG Repo Mixer Tools -->
<svg width="800px" height="800px" viewBox="0 0 100 100" xmlns="http://www.w3.org/2000/svg" xmlns:xlink="http://www.w3.org/1999/xlink" aria-hidden="true" role="img" class="iconify iconify--gis" preserveAspectRatio="xMidYMid meet"><path d="M68.913 48.908l-.048.126c.015-.038.027-.077.042-.115l.006-.011z" fill="#000000"></path><path d="M50.002 0C33.524 0 20 13.48 20 29.922c0 6.372 2.04 12.31 5.48 17.174l-.123-.192l19.206 33.198l.097.127c.774 1.01 1.54 1.824 2.467 2.437c.927.613 2.114 1 3.28.883c2.33-.234 3.684-1.844 4.935-3.54l.078-.105L76.594 43.87l.017-.03c.507-.915.874-1.838 1.188-2.732A29.578 29.578 0 0 0 80 29.922C80 13.48 66.48 0 50.002 0zm0 5C63.756 5 75 16.218 75 29.922a24.55 24.55 0 0 1-1.84 9.332l-.025.062l-.022.065c-.263.757-.549 1.444-.879 2.04L51.275 77.087c-.927 1.221-1.575 1.51-1.367 1.488c.107-.01.206.074-.023-.078c-.219-.145-.666-.57-1.196-1.246L29.63 44.3l-.067-.093C26.69 40.147 25 35.23 25 29.922C25 16.219 36.248 5 50.002 5zm0 7.85c-9.462 0-17.115 7.626-17.115 17.072c0 9.446 7.654 17.072 17.115 17.072c9.461 0 17.111-7.627 17.111-17.072c0-9.446-7.65-17.072-17.111-17.072zm0 5c6.817 0 12.111 5.285 12.111 12.072c0 6.787-5.293 12.072-12.111 12.072c-6.818 0-12.115-5.286-12.115-12.072c0-6.787 5.298-12.072 12.115-12.072z" fill="#000000"></path><path d="M34.006 69.057C19.88 71.053 10 75.828 10 82.857C10 92.325 26.508 100 50 100s40-7.675 40-17.143c0-7.029-9.879-11.804-24.004-13.8l-1.957 3.332C74.685 73.866 82 76.97 82 80.572c0 5.05-14.327 9.143-32 9.143c-17.673 0-32-4.093-32-9.143c-.001-3.59 7.266-6.691 17.945-8.174c-.645-1.114-1.294-2.226-1.94-3.341z" fill="#000000"></path></svg>