<?xml version="1.0" encoding="utf-8"?>

<!DOCTYPE svg PUBLIC "-//W3C//DTD SVG 1.1//EN" "http://www.w3.org/Graphics/SVG/1.1/DTD/svg11.dtd">
<!-- Uploaded to: SVG Repo, www.svgrepo.com, Generator: SVG Repo Mixer Tools -->
<svg height="800px" width="800px" version="1.1" id="_x32_" xmlns="http://www.w3.org/2000/svg" xmlns:xlink="http://www.w3.org/1999/xlink" 
	 viewBox="0 0 512 512"  xml:space="preserve">
<style type="text/css">
	.st0{fill:#000000;}
</style>
<g>
	<path class="st0" d="M405.974,62.12C364.561,20.707,310.275,0,255.997,0C201.72,0,147.443,20.707,106.029,62.12
		c-82.814,82.81-82.814,217.11,0,299.929L255.997,512l149.976-149.951C488.784,279.23,488.784,144.93,405.974,62.12z
		 M382.328,338.394L255.997,464.708L129.68,338.403c-69.653-69.657-69.653-182.988,0-252.637
		c33.738-33.738,78.601-52.322,126.318-52.322c47.717,0,92.584,18.584,126.322,52.322
		C451.977,155.414,451.977,268.746,382.328,338.394z"/>
	<path class="st0" d="M255.997,213.207c30.513,0,55.249-24.724,55.249-55.253c0-30.513-24.736-55.245-55.249-55.245
		c-30.521,0-55.257,24.732-55.257,55.245C200.74,188.483,225.477,213.207,255.997,213.207z"/>
	<path class="st0" d="M255.997,233.979c-43.785,0-79.274,35.502-79.274,79.274h158.546
		C335.268,269.481,299.775,233.979,255.997,233.979z"/>
</g>
</svg>