<?xml version="1.0" standalone="no"?><!DOCTYPE svg PUBLIC "-//W3C//DTD SVG 1.1//EN" "http://www.w3.org/Graphics/SVG/1.1/DTD/svg11.dtd"><svg t="1734513699776" class="icon" viewBox="0 0 1024 1024" version="1.1" xmlns="http://www.w3.org/2000/svg" p-id="1451" xmlns:xlink="http://www.w3.org/1999/xlink" width="200" height="200"><path d="M835.669333 554.666667h-473.173333A42.453333 42.453333 0 0 1 320 512a42.666667 42.666667 0 0 1 42.474667-42.666667h473.173333l-161.813333-161.834666a42.666667 42.666667 0 0 1 60.330666-60.330667l234.666667 234.666667a42.666667 42.666667 0 0 1 0 60.330666l-234.666667 234.666667a42.666667 42.666667 0 0 1-60.330666-60.330667L835.669333 554.666667zM554.666667 42.666667a42.666667 42.666667 0 1 1 0 85.333333H149.525333C137.578667 128 128 137.578667 128 149.482667v725.034666C128 886.4 137.6 896 149.525333 896H554.666667a42.666667 42.666667 0 1 1 0 85.333333H149.525333A106.816 106.816 0 0 1 42.666667 874.517333V149.482667A106.773333 106.773333 0 0 1 149.525333 42.666667H554.666667z" fill="" p-id="1452"></path></svg>