<?xml version="1.0" standalone="no"?><!DOCTYPE svg PUBLIC "-//W3C//DTD SVG 1.1//EN" "http://www.w3.org/Graphics/SVG/1.1/DTD/svg11.dtd"><svg t="1740572750813" class="icon" viewBox="0 0 1024 1024" version="1.1" xmlns="http://www.w3.org/2000/svg" p-id="1747" xmlns:xlink="http://www.w3.org/1999/xlink" width="200" height="200"><path d="M708.7 944.8H310.8c-50.5 0-97.9-19.6-133.6-55.3s-55.3-83.1-55.3-133.6V277.2c0-50.5 19.6-97.9 55.3-133.6 35.7-35.7 83.1-55.3 133.6-55.3h397.9c50.5 0 97.9 19.6 133.6 55.3s55.3 83.1 55.3 133.6V756c0 104.1-84.7 188.8-188.9 188.8zM310.8 148.3c-71.1 0-128.9 57.8-128.9 128.9v478.7c0 71.1 57.8 128.9 128.9 128.9h397.9c71.1 0 128.9-57.8 128.9-128.8V277.2c0-71.1-57.8-128.9-128.9-128.9H310.8z" fill="#545454" p-id="1748"></path><path d="M673.1 437.6H347.8c-20.8 0-37.7-16.9-37.7-37.7 0-20.8 16.9-37.7 37.7-37.7h325.3c20.8 0 37.7 16.9 37.7 37.7 0 20.8-16.9 37.7-37.7 37.7zM523.4 654.1H347.8c-20.8 0-37.7-16.9-37.7-37.7 0-20.8 16.9-37.7 37.7-37.7h175.7c20.8 0 37.7 16.9 37.7 37.7-0.1 20.8-16.9 37.7-37.8 37.7z" fill="#545454" p-id="1749"></path></svg>