<?xml version="1.0" standalone="no"?><!DOCTYPE svg PUBLIC "-//W3C//DTD SVG 1.1//EN" "http://www.w3.org/Graphics/SVG/1.1/DTD/svg11.dtd"><svg t="1740571914097" class="icon" viewBox="0 0 1024 1024" version="1.1" xmlns="http://www.w3.org/2000/svg" p-id="1152" xmlns:xlink="http://www.w3.org/1999/xlink" width="200" height="200"><path d="M512 28.672C380.928 28.672 274.432 135.168 274.432 266.24S380.928 503.808 512 503.808s237.056-106.496 237.056-237.568S643.072 28.672 512 28.672z m0 396.8c-88.064 0-159.744-71.68-159.744-159.232s71.68-159.744 159.744-159.744 159.744 71.68 159.744 159.744-72.192 159.232-159.744 159.232zM906.752 995.328c-23.552 0-43.008-16.384-43.008-36.352v-188.416c0-80.384-76.8-145.92-171.008-145.92H331.264c-94.208 0-171.008 65.536-171.008 145.92v188.416c0 19.968-18.944 36.352-43.008 36.352-23.552 0-43.008-16.384-43.008-36.352v-188.416c0-58.368 26.624-113.152 75.264-154.624 48.64-41.472 112.64-64 181.248-64h361.472c68.608 0 133.12 23.04 181.248 64 48.64 41.472 75.264 96.256 75.264 154.624v188.416c0.512 20.48-18.432 36.352-41.984 36.352z" fill="#333333" p-id="1153"></path><path d="M578.048 751.104c0-21.504 17.408-38.912 38.912-38.912h109.568c21.504 0 38.912 17.408 38.912 38.912 0 21.504-17.408 38.912-38.912 38.912h-109.568c-20.992 0-38.912-17.408-38.912-38.912z" fill="#333333" p-id="1154"></path></svg>