<?xml version="1.0" encoding="utf-8"?>
<!-- Uploaded to: SVG Repo, www.svgrepo.com, Generator: SVG Repo Mixer Tools -->
<svg fill="#000000" width="800px" height="800px" viewBox="0 0 32 32" version="1.1" xmlns="http://www.w3.org/2000/svg">
<title>rotate</title>
<path d="M5.966 16.767l4.090-4.090h-2.397c0.022-0.060 0.045-0.119 0.067-0.178 1.422-3.602 4.934-6.15 9.040-6.15 5.366 0 9.716 4.35 9.716 9.715s-4.35 9.716-9.716 9.716c-3.946 0-7.343-2.354-8.863-5.733-0.015-0.031-0.024-0.066-0.039-0.099l-2.605 2.589c0.018 0.030 0.030 0.064 0.048 0.096 0.004 0.007 0.008 0.014 0.012 0.020 2.299 3.972 6.594 6.643 11.513 6.643 7.342 0 13.294-5.952 13.294-13.294s-5.953-13.296-13.295-13.296c-6.138 0-11.303 4.158-12.833 9.812-0.015 0.052-0.020 0.107-0.032 0.159h-2.091l4.091 4.090z"></path>
</svg>