<svg xmlns="http://www.w3.org/2000/svg" width="24" height="24" viewBox="0 0 24 24" fill="none" stroke="currentColor" stroke-width="0.9" stroke-linecap="round" stroke-linejoin="round">
  <path d="M5 10.8 19 5"/>
  <path d="M19 5 13.2 19"/>
  <path d="M13.2 19 10.4 13.4"/>
  <path d="M10.4 13.4 5 10.8"/>
  <path d="M10.4 13.4 19 5"/>
  <path stroke-width="0.7" d="M4.6 16.85 H7.5 A0.85 0.85 0 0 1 8.35 17.7 V19.4 A0.85 0.85 0 0 1 7.5 20.25 H4.6 A0.85 0.85 0 0 1 3.75 19.4 V17.7 A0.85 0.85 0 0 1 4.6 16.85 Z"/>
  <path stroke-width="0.7" d="M4.85 16.85 V15.75 A1.2 1.2 0 0 1 7.25 15.75 V16.85"/>
  <path stroke-width="0.7" d="M6.05 18.05 V18.65"/>
</svg>
