<svg viewBox="0 0 24 24" xmlns="http://www.w3.org/2000/svg">
    <path d="M12 8.25a3.75 3.75 0 1 0 0 7.5a3.75 3.75 0 0 0 0-7.5zm9 3.75c0-.467-.05-.923-.145-1.364l2.06-1.606a1 1 0 0 0 .224-1.361l-1.78-3.082a1 1 0 0 0-1.278-.44l-2.43.976a9.978 9.978 0 0 0-2.362-1.364L14.92 1.17A1 1 0 0 0 13.93.25h-3.86a1 1 0 0 0-.99.92l-.369 2.588a9.978 9.978 0 0 0-2.362 1.364l-2.43-.976a1 1 0 0 0-1.278.44L.861 7.668a1 1 0 0 0 .224 1.361l2.06 1.607a10.07 10.07 0 0 0 0 2.728l-2.06 1.607a1 1 0 0 0-.224 1.361l1.78 3.082a1 1 0 0 0 1.278.44l2.43-.976a9.978 9.978 0 0 0 2.362 1.364l.369 2.588a1 1 0 0 0 .99.92h3.86a1 1 0 0 0 .99-.92l.369-2.588a9.978 9.978 0 0 0 2.362-1.364l2.43.976a1 1 0 0 0 1.278-.44l1.78-3.082a1 1 0 0 0-.224-1.361l-2.06-1.607c.096-.442.145-.897.145-1.364zM12 17.75a5.75 5.75 0 1 1 0-11.5a5.75 5.75 0 0 1 0 11.5z"/>
</svg>
