<?xml version="1.0" encoding="UTF-8" standalone="no"?>
<!DOCTYPE svg PUBLIC "-//W3C//DTD SVG 1.1//EN" "http://www.w3.org/Graphics/SVG/1.1/DTD/svg11.dtd">
<svg width="100%" height="100%" viewBox="0 0 20 14" version="1.1" xmlns="http://www.w3.org/2000/svg" xmlns:xlink="http://www.w3.org/1999/xlink" xml:space="preserve" xmlns:serif="http://www.serif.com/" style="fill-rule:evenodd;clip-rule:evenodd;stroke-linejoin:round;stroke-miterlimit:2;">
    <path d="M3.302,6.063C2.247,6.063 1.427,5.242 1.427,4.188C1.427,3.162 2.247,2.313 3.302,2.313C4.327,2.313 5.177,3.162 5.177,4.188C5.177,5.242 4.327,6.063 3.302,6.063ZM16.427,6.063C15.372,6.063 14.552,5.242 14.552,4.188C14.552,3.162 15.372,2.313 16.427,2.313C17.452,2.313 18.302,3.162 18.302,4.188C18.302,5.242 17.452,6.063 16.427,6.063ZM17.364,7C18.39,7 19.239,7.85 19.239,8.875L19.239,9.813C19.239,10.34 18.8,10.75 18.302,10.75L16.368,10.75C16.163,9.373 15.343,8.201 14.142,7.557C14.493,7.234 14.962,7 15.489,7L17.364,7ZM9.864,7C8.048,7 6.583,5.535 6.583,3.719C6.583,1.932 8.048,0.438 9.864,0.438C11.651,0.438 13.146,1.932 13.146,3.719C13.146,5.535 11.651,7 9.864,7ZM12.091,7.938C13.966,7.938 15.489,9.461 15.489,11.336L15.489,12.156C15.489,12.947 14.845,13.563 14.083,13.563L5.646,13.563C4.854,13.563 4.239,12.947 4.239,12.156L4.239,11.336C4.239,9.461 5.733,7.938 7.608,7.938L7.843,7.938C8.458,8.23 9.132,8.406 9.864,8.406C10.567,8.406 11.241,8.23 11.856,7.938L12.091,7.938ZM5.558,7.557C4.356,8.201 3.536,9.373 3.331,10.75L1.427,10.75C0.899,10.75 0.489,10.34 0.489,9.813L0.489,8.875C0.489,7.85 1.31,7 2.364,7L4.239,7C4.737,7 5.206,7.234 5.558,7.557Z"/>
</svg>
