<?xml version="1.0" encoding="UTF-8" standalone="no"?>
<!DOCTYPE svg PUBLIC "-//W3C//DTD SVG 1.1//EN" "http://www.w3.org/Graphics/SVG/1.1/DTD/svg11.dtd">
<svg width="100%" height="100%" viewBox="0 0 17 19" version="1.1" xmlns="http://www.w3.org/2000/svg" xmlns:xlink="http://www.w3.org/1999/xlink" xml:space="preserve" xmlns:serif="http://www.serif.com/" style="fill-rule:evenodd;clip-rule:evenodd;stroke-linejoin:round;stroke-miterlimit:2;">
    <path d="M8.809,9.461C6.313,9.461 4.309,7.457 4.309,4.961C4.309,2.5 6.313,0.461 8.809,0.461C11.27,0.461 13.309,2.5 13.309,4.961C13.309,7.457 11.27,9.461 8.809,9.461ZM11.938,10.586C14.539,10.586 16.684,12.73 16.684,15.332L16.684,16.773C16.684,17.723 15.91,18.461 14.996,18.461L2.621,18.461C1.672,18.461 0.934,17.723 0.934,16.773L0.934,15.332C0.934,12.73 3.043,10.586 5.645,10.586L6.242,10.586C7.016,10.973 7.895,11.148 8.809,11.148C9.723,11.148 10.566,10.973 11.34,10.586L11.938,10.586Z" style="fill-opacity:0.5;"/>
</svg>
