<?xml version="1.0" encoding="utf-8"?>
<!-- Generator: Adobe Illustrator 27.2.0, SVG Export Plug-In . SVG Version: 6.00 Build 0)  -->
<svg version="1.1" id="Layer_1" xmlns="http://www.w3.org/2000/svg" xmlns:xlink="http://www.w3.org/1999/xlink" x="0px" y="0px"
	 viewBox="0 0 512 512" style="enable-background:new 0 0 512 512;" xml:space="preserve">
<style type="text/css">
	.st0{fill:#212121;}
</style>
<g>
	<path class="st0" d="M25.6,96c0-10.6,8.6-19.2,19.2-19.2c68.18,0,134.6-24.15,199.68-72.96c6.83-5.12,16.21-5.12,23.04,0
		C332.6,52.65,399.02,76.8,467.2,76.8c10.6,0,19.2,8.6,19.2,19.2v134.4c0,128.03-75.71,222.1-223.36,280.26
		c-4.52,1.78-9.55,1.78-14.07,0C101.31,452.5,25.6,358.43,25.6,230.4V96z M281.6,358.4c0-14.14-11.46-25.6-25.6-25.6
		c-14.14,0-25.6,11.46-25.6,25.6c0,14.14,11.46,25.6,25.6,25.6C270.14,384,281.6,372.54,281.6,358.4z M224,198.4
		c0-17.67,14.33-32,32-32s32,14.33,32,32c0,11.44-6.35,18.86-19.96,32.45l-1.22,1.21c-12.05,11.99-30.02,29.87-30.02,58.49
		c0,10.6,8.6,19.2,19.2,19.2c10.6,0,19.2-8.6,19.2-19.2c0-11.5,6.37-18.96,19.96-32.53l1.26-1.25
		c12.03-11.96,29.98-29.83,29.98-58.38c0-38.88-31.52-70.4-70.4-70.4s-70.4,31.52-70.4,70.4c0,10.6,8.6,19.2,19.2,19.2
		C215.4,217.6,224,209,224,198.4z"/>
</g>
</svg>
