<?xml version="1.0" encoding="utf-8"?><!-- Uploaded to: SVG Repo, www.svgrepo.com, Generator: SVG Repo Mixer Tools -->
<svg width="800px" height="800px" viewBox="0 0 24 24" fill="none" xmlns="http://www.w3.org/2000/svg">
<path d="M11 6.5C11 5.94772 10.5523 5.5 10 5.5C9.44771 5.5 9 5.94772 9 6.5V9H6.5C5.94772 9 5.5 9.44771 5.5 10C5.5 10.5523 5.94772 11 6.5 11H9V13.5C9 14.0523 9.44771 14.5 10 14.5C10.5523 14.5 11 14.0523 11 13.5V11H13.5C14.0523 11 14.5 10.5523 14.5 10C14.5 9.44771 14.0523 9 13.5 9H11V6.5Z" fill="#000000"/>
<path fill-rule="evenodd" clip-rule="evenodd" d="M10 1C5.02944 1 1 5.02944 1 10C1 14.9706 5.02944 19 10 19C12.125 19 14.078 18.2635 15.6177 17.0319L20.2929 21.7071C20.6834 22.0976 21.3166 22.0976 21.7071 21.7071C22.0976 21.3166 22.0976 20.6834 21.7071 20.2929L17.0319 15.6177C18.2635 14.078 19 12.125 19 10C19 5.02944 14.9706 1 10 1ZM3 10C3 6.13401 6.13401 3 10 3C13.866 3 17 6.13401 17 10C17 13.866 13.866 17 10 17C6.13401 17 3 13.866 3 10Z" fill="#000000"/>
</svg>