<?xml version="1.0" encoding="utf-8"?><!-- Uploaded to: SVG Repo, www.svgrepo.com, Generator: SVG Repo Mixer Tools -->
<svg width="800px" height="800px" viewBox="0 0 24 24" fill="none" xmlns="http://www.w3.org/2000/svg">
<path d="M5.5 10C5.5 9.44771 5.94772 9 6.5 9H13.5C14.0523 9 14.5 9.44771 14.5 10C14.5 10.5523 14.0523 11 13.5 11H6.5C5.94772 11 5.5 10.5523 5.5 10Z" fill="#000000"/>
<path fill-rule="evenodd" clip-rule="evenodd" d="M1 10C1 5.02944 5.02944 1 10 1C14.9706 1 19 5.02944 19 10C19 12.125 18.2635 14.078 17.0319 15.6177L21.7071 20.2929C22.0976 20.6834 22.0976 21.3166 21.7071 21.7071C21.3166 22.0976 20.6834 22.0976 20.2929 21.7071L15.6177 17.0319C14.078 18.2635 12.125 19 10 19C5.02944 19 1 14.9706 1 10ZM10 3C6.13401 3 3 6.13401 3 10C3 13.866 6.13401 17 10 17C13.866 17 17 13.866 17 10C17 6.13401 13.866 3 10 3Z" fill="#000000"/>
</svg>